<?xml version="1.0" encoding="UTF-8"?><svg id="a" xmlns="http://www.w3.org/2000/svg" viewBox="0 0 1749.48 907.06"><defs><style>.b{fill:#fce650;}.c{fill:#59c6f2;}.d{fill:#1a2693;}</style></defs><path class="d" d="M166.4,293.19l.07,89.31h59.36v68.11h-59.36v200.4H71.46V299.82c0-82.45,40.13-127.76,106.17-127.76,13.59,0,39.62,3.74,57.65,11.59v79.52c-11.22-6.25-20.5-13.62-36.85-13.62-23.58,0-32.04,21.96-32.03,43.64"/><path class="d" d="M551.54,382.08v268.51h-87.91v-51.06s-21.5,60.97-88.05,60.97c-92.04,0-124.01-86.84-124.01-144.1,0-68.99,43.76-144.22,124.87-144.22,63.03,0,87.19,54.54,87.19,54.54v-44.63h87.91Zm-90.33,134.32c0-26.04-20.93-57.26-56.11-57.26s-58.52,25.65-58.52,57.26,24.01,57.25,58.52,57.25c36.4,0,56.12-29.74,56.12-57.25"/><path class="d" d="M798.5,502.82l-9.52-.02c-48.71-61.89-85.45-62.95-85.45-4.22v152.49h-94.49V382.54h78.65l15.84,32.89c5.06-11.29,25.76-32.89,68.66-32.89h26.3v120.28Z"/><path class="d" d="M1282.94,486.52v164.67h-95.01v-139.22c0-33.95-9.67-55.12-39.02-55.12s-38.99,21.17-38.99,55.12l-.07,139.22h-95.09v-139.22c0-33.95-9.66-55.12-38.99-55.12s-39.02,21.17-39.02,55.12l-.08,139.22h-95.01V382.69h87.91v51.34s19.4-61.27,81.55-61.27c69.02,0,86.27,57.42,86.27,57.42,0,0,23.81-57.42,86.87-57.42,76.07,0,98.67,57.75,98.67,113.76"/><path class="d" d="M1607.61,382.09v268.52l-87.92-.02v-51.34s-16.58,61.26-81.52,61.26c-68.54,0-103.95-47.12-103.95-108.64v-169.77h95.01l-.95,141.08c0,36.73,14.78,53.26,41.42,53.26,22.49,0,42.74-15.3,42.74-52.89l.14-141.45h95.01Z"/><path class="c" d="M1680.89,246.51h-.12c-11.82,.2-22.11,4.09-30.57,11.53-10.6,9.23-15.97,21.11-15.97,35.31,0,8.32,2.04,16.14,6.05,23.2,4.33,7.76,10.55,13.84,18.46,18.07,6.84,3.69,14.09,5.57,21.54,5.57,12.02,0,22.58-3.88,31.39-11.53,10.54-9.18,15.89-20.94,15.89-34.96,0-12.5-4.1-23.29-12.19-32.07-9.28-10.03-20.88-15.12-34.47-15.12"/><path class="b" d="M1303.21,713.28h-.12c-11.82,.2-22.11,4.09-30.57,11.53-10.6,9.23-15.97,21.11-15.97,35.31,0,8.32,2.04,16.14,6.05,23.2,4.33,7.76,10.54,13.84,18.46,18.07,6.84,3.7,14.09,5.57,21.54,5.57,12.02,0,22.57-3.87,31.39-11.53,10.54-9.17,15.89-20.94,15.89-34.96,0-12.5-4.1-23.29-12.19-32.07-9.28-10.03-20.88-15.12-34.47-15.12"/></svg>