<?xml version="1.0" standalone="no"?>
<!DOCTYPE svg PUBLIC "-//W3C//DTD SVG 20010904//EN"
 "http://www.w3.org/TR/2001/REC-SVG-20010904/DTD/svg10.dtd">
<svg version="1.0" xmlns="http://www.w3.org/2000/svg"
 width="1749.000000pt" height="907.000000pt" viewBox="0 0 1749.000000 907.000000"
 preserveAspectRatio="xMidYMid meet">

<g transform="translate(0.000000,907.000000) scale(0.100000,-0.100000)"
fill="#000000" stroke="none">
<path d="M1655 7344 c-539 -59 -863 -429 -924 -1058 -7 -73 -11 -715 -11
-1918 l0 -1808 475 0 475 0 0 1000 0 1000 295 0 295 0 0 340 0 340 -292 2
-293 3 -3 475 c-2 319 1 497 9 543 14 89 68 196 121 241 111 95 288 88 470
-19 42 -25 80 -45 83 -45 3 0 4 179 3 398 l-3 397 -97 33 c-167 56 -454 92
-603 76z"/>
<path d="M3630 5339 c-332 -41 -618 -214 -819 -496 -111 -155 -207 -376 -250
-578 -101 -464 8 -1000 273 -1351 151 -200 374 -352 602 -410 398 -100 753
-14 995 244 76 80 112 130 169 234 l40 73 0 -247 0 -248 440 0 440 0 0 1345 0
1345 -440 0 -440 0 0 -217 0 -218 -49 77 c-99 153 -271 305 -427 374 -143 64
-365 94 -534 73z m594 -889 c162 -51 304 -197 367 -380 31 -91 32 -238 2 -335
-63 -201 -221 -349 -418 -390 -90 -19 -148 -19 -243 1 -173 35 -323 147 -396
295 -113 229 -77 473 97 655 151 160 379 219 591 154z"/>
<path d="M9950 5325 c-157 -32 -317 -121 -428 -239 -76 -81 -114 -137 -174
-251 l-47 -90 -1 248 0 247 -440 0 -440 0 0 -1340 0 -1340 474 0 475 0 4 778
c4 844 4 844 61 964 39 81 79 123 154 160 62 31 74 33 167 33 127 0 190 -20
258 -84 54 -50 86 -106 113 -197 17 -54 18 -126 21 -856 l4 -798 474 0 473 0
5 773 c4 846 4 841 66 972 60 128 171 195 326 195 197 0 320 -108 372 -327 13
-58 16 -178 20 -840 l5 -773 475 0 475 0 -5 908 c-3 796 -6 920 -21 1010 -90
546 -393 836 -897 859 -214 10 -381 -28 -542 -123 -116 -69 -275 -230 -342
-346 -27 -48 -52 -87 -55 -88 -3 0 -14 21 -24 47 -30 72 -128 212 -189 270
-123 117 -287 197 -464 228 -103 18 -264 18 -353 0z"/>
<path d="M13350 4338 c0 -968 2 -1009 48 -1168 69 -234 197 -415 381 -538 142
-95 289 -144 493 -163 275 -26 508 46 684 214 84 79 172 204 215 305 l28 67 1
-247 0 -248 440 0 440 0 0 1345 0 1345 -475 0 -474 0 -4 -782 c-3 -855 -1
-819 -62 -945 -97 -197 -351 -275 -562 -172 -104 50 -169 151 -200 311 -14 73
-15 171 -10 836 l6 752 -474 0 -475 0 0 -912z"/>
<path d="M6100 3900 l0 -1340 470 0 469 0 4 843 c3 771 5 847 21 902 23 80 58
138 103 172 32 25 45 28 112 28 64 0 86 -5 141 -31 36 -17 93 -52 128 -79 75
-57 219 -199 292 -289 53 -65 54 -66 102 -66 l48 0 0 600 0 600 -192 0 c-210
-1 -298 -12 -416 -53 -131 -46 -256 -136 -314 -226 l-28 -44 -77 161 -77 162
-393 0 -393 0 0 -1340z"/>
</g>
</svg>
